<?xml version="1.0" encoding="iso-8859-1"?>
<!-- Generator: Adobe Illustrator 24.1.2, SVG Export Plug-In . SVG Version: 6.00 Build 0)  -->
<svg version="1.1" baseProfile="basic" id="&#x421;&#x43B;&#x43E;&#x439;_1"
	 xmlns="http://www.w3.org/2000/svg" xmlns:xlink="http://www.w3.org/1999/xlink" x="0px" y="0px" viewBox="0 0 48 48"
	 xml:space="preserve">
<linearGradient id="SVGID_1_" gradientUnits="userSpaceOnUse" x1="-209.9417" y1="-3.0555" x2="-179.3602" y2="27.5259" gradientTransform="matrix(1 0 0 1 208.979 6.006)">
	<stop  offset="0" style="stop-color:#55ADFD"/>
	<stop  offset="1" style="stop-color:#438FFD"/>
</linearGradient>
<path marker-end="none" marker-start="none" style="fill:url(#SVGID_1_);" d="M39.001,13.999v27c0,1.105-0.896,2-2,2h-26
	c-1.105,0-2-0.895-2-2v-34c0-1.104,0.895-2,2-2h19l2,7L39.001,13.999z"/>
<path marker-end="none" marker-start="none" style="fill-rule:evenodd;clip-rule:evenodd;fill:#FFFFFF;" d="M15.999,18.001v2.999
	h17.002v-2.999H15.999z"/>
<path marker-end="none" marker-start="none" style="fill-rule:evenodd;clip-rule:evenodd;fill:#FFFFFF;" d="M16.001,24.001v2.999
	h17.002v-2.999H16.001z"/>
<path marker-end="none" marker-start="none" style="fill-rule:evenodd;clip-rule:evenodd;fill:#FFFFFF;" d="M15.999,30.001v2.999
	h12.001v-2.999H15.999z"/>
<linearGradient id="SVGID_2_" gradientUnits="userSpaceOnUse" x1="-197.8615" y1="-4.6323" x2="-203.3842" y2="0.8904" gradientTransform="matrix(1 0 0 1 234.385 12.109)">
	<stop  offset="0" style="stop-color:#427FDB"/>
	<stop  offset="1" style="stop-color:#0C52BB"/>
</linearGradient>
<path marker-end="none" marker-start="none" style="fill:url(#SVGID_2_);" d="M30.001,13.999l0.001-9l8.999,8.999L30.001,13.999z"/>
</svg>