<svg viewBox="267.9481865284974 61.776 104.64248704663213 120.384" version="1.1" xmlns:xlink="http://www.w3.org/1999/xlink" xmlns="http://www.w3.org/2000/svg" style="max-height: 500px" width="104.64248704663213" height="120.384">
  <defs>
    <style>
      .cls-1 {
        mask: url(#mask);
      }

      .cls-2 {
        filter: url(#luminosity-noclip);
      }

      .cls-3 {
        filter: url(#luminosity-noclip-3);
      }

      .cls-4 {
        fill: url(#linear-gradient-8);
      }

      .cls-5 {
        fill: url(#linear-gradient-10);
      }

      .cls-5, .cls-6, .cls-7, .cls-8, .cls-9, .cls-10, .cls-11, .cls-12, .cls-13, .cls-14, .cls-15, .cls-16, .cls-17, .cls-18, .cls-19, .cls-20, .cls-21 {
        opacity: .5;
      }

      .cls-5, .cls-6, .cls-7, .cls-8, .cls-9, .cls-10, .cls-11, .cls-22, .cls-23, .cls-24, .cls-25, .cls-26, .cls-27, .cls-28, .cls-29, .cls-15, .cls-16, .cls-21 {
        mix-blend-mode: screen;
      }

      .cls-6 {
        fill: url(#linear-gradient-13);
      }

      .cls-7 {
        fill: url(#linear-gradient-12);
      }

      .cls-8 {
        fill: url(#linear-gradient-11);
      }

      .cls-9 {
        fill: url(#linear-gradient-19);
      }

      .cls-10 {
        fill: url(#linear-gradient-14);
      }

      .cls-11 {
        fill: url(#linear-gradient-18);
      }

      .cls-30 {
        fill: url(#linear-gradient-2);
      }

      .cls-30, .cls-31, .cls-32, .cls-33, .cls-13, .cls-14, .cls-17, .cls-18, .cls-19, .cls-20 {
        mix-blend-mode: multiply;
      }

      .cls-31 {
        fill: url(#linear-gradient-4);
      }

      .cls-34 {
        fill: url(#linear-gradient);
      }

      .cls-35 {
        isolation: isolate;
      }

      .cls-36 {
        mask: url(#mask-2);
      }

      .cls-37 {
        mask: url(#mask-3);
      }

      .cls-38 {
        mask: url(#mask-1);
      }

      .cls-32 {
        fill: url(#linear-gradient-26);
      }

      .cls-12 {
        fill: url(#linear-gradient-9);
      }

      .cls-13 {
        fill: url(#linear-gradient-5);
      }

      .cls-14 {
        fill: url(#linear-gradient-3);
      }

      .cls-39 {
        fill: #fff;
      }

      .cls-22 {
        fill: url(#linear-gradient-29);
      }

      .cls-23 {
        fill: url(#linear-gradient-27);
      }

      .cls-24 {
        fill: url(#linear-gradient-23);
      }

      .cls-25 {
        fill: url(#linear-gradient-22);
      }

      .cls-26 {
        fill: url(#linear-gradient-28);
      }

      .cls-27 {
        fill: url(#linear-gradient-25);
      }

      .cls-28 {
        fill: url(#linear-gradient-15);
      }

      .cls-40 {
        fill: url(#linear-gradient-20);
      }

      .cls-41 {
        fill: url(#linear-gradient-32);
      }

      .cls-42 {
        fill: url(#linear-gradient-31);
      }

      .cls-43 {
        fill: url(#linear-gradient-33);
      }

      .cls-44 {
        fill: url(#linear-gradient-30);
      }

      .cls-45 {
        fill: url(#linear-gradient-16);
      }

      .cls-46 {
        fill: url(#linear-gradient-34);
      }

      .cls-47 {
        fill: url(#linear-gradient-36);
      }

      .cls-48 {
        fill: url(#linear-gradient-24);
      }

      .cls-49 {
        fill: #6061ab;
      }

      .cls-50 {
        fill: #2e3192;
        font-family: Arial-Black, 'Arial Black';
        font-size: 23.63px;
        font-weight: 800;
      }

      .cls-15 {
        fill: url(#linear-gradient-7);
      }

      .cls-16 {
        fill: url(#linear-gradient-6);
      }

      .cls-17 {
        fill: url(#linear-gradient-37);
      }

      .cls-18 {
        fill: url(#linear-gradient-35);
      }

      .cls-19 {
        fill: url(#linear-gradient-21);
      }

      .cls-20 {
        fill: url(#linear-gradient-17);
      }
    </style>
    <linearGradient gradientUnits="userSpaceOnUse" y2="124.38" x2="282.82" y1="124.38" x1="360.66" id="linear-gradient">
      <stop stop-color="#118acb" offset="0"/>
      <stop stop-color="#239ad0" offset=".32"/>
      <stop stop-color="#51c4de" offset=".96"/>
      <stop stop-color="#55c7df" offset="1"/>
    </linearGradient>
    <filter filterUnits="userSpaceOnUse" color-interpolation-filters="sRGB" height="29.87" width="34.75" y="109.81" x="321.63" id="luminosity-noclip">
      <feFlood result="bg" flood-color="#fff"/>
      <feBlend in2="bg" in="SourceGraphic"/>
    </filter>
    <filter filterUnits="userSpaceOnUse" color-interpolation-filters="sRGB" height="32766" width="34.75" y="-8588" x="321.63" id="luminosity-noclip-2">
      <feFlood result="bg" flood-color="#fff"/>
      <feBlend in2="bg" in="SourceGraphic"/>
    </filter>
    <mask maskUnits="userSpaceOnUse" height="32766" width="34.75" y="-8588" x="321.63" id="mask-1"/>
    <linearGradient gradientUnits="userSpaceOnUse" y2="125.3" x2="320.32" y1="122.95" x1="353.88" id="linear-gradient-2">
      <stop stop-color="#fff" offset="0"/>
      <stop stop-color="#ececec" offset=".1"/>
      <stop stop-color="#bdbdbd" offset=".31"/>
      <stop stop-color="#717171" offset=".6"/>
      <stop stop-color="#0a0a0a" offset=".96"/>
      <stop stop-color="#000" offset="1"/>
    </linearGradient>
    <mask maskUnits="userSpaceOnUse" height="29.87" width="34.75" y="109.81" x="321.63" id="mask">
      <g class="cls-2">
        <g class="cls-38">
          <path d="M334.07,109.81c0,.06-.02.13-.03.19,10.01,2.17,16.8,6.39,16.8,11.25s-6.54,8.23-16.24,9.98c-3.84,3.77-8.16,6.73-12.97,8.45,19.44-.62,34.75-7.36,34.75-15.59,0-6.37-9.16-11.84-22.31-14.28Z" class="cls-30"/>
        </g>
      </g>
    </mask>
    <linearGradient gradientUnits="userSpaceOnUse" y2="125.3" x2="320.32" y1="122.95" x1="353.88" id="linear-gradient-3">
      <stop stop-color="#009edb" offset="0"/>
      <stop stop-color="#33b6dd" offset=".58"/>
      <stop stop-color="#55c7df" offset="1"/>
    </linearGradient>
    <filter filterUnits="userSpaceOnUse" color-interpolation-filters="sRGB" height="23.06" width="19.19" y="109.86" x="332.78" id="luminosity-noclip-3">
      <feFlood result="bg" flood-color="#fff"/>
      <feBlend in2="bg" in="SourceGraphic"/>
    </filter>
    <filter filterUnits="userSpaceOnUse" color-interpolation-filters="sRGB" height="32766" width="19.19" y="-8588" x="332.78" id="luminosity-noclip-4">
      <feFlood result="bg" flood-color="#fff"/>
      <feBlend in2="bg" in="SourceGraphic"/>
    </filter>
    <mask maskUnits="userSpaceOnUse" height="32766" width="19.19" y="-8588" x="332.78" id="mask-3"/>
    <linearGradient xlink:href="#linear-gradient-2" y2="121.5" x2="331.81" y1="120.19" x1="350.54" id="linear-gradient-4"/>
    <mask maskUnits="userSpaceOnUse" height="23.06" width="19.19" y="109.86" x="332.78" id="mask-2">
      <g class="cls-3">
        <g class="cls-37">
          <path d="M334.6,131.23c-.59.58-1.2,1.15-1.82,1.69.48-.41.96-.84,1.43-1.27,10.61-1.81,17.76-5.38,17.76-10.29s-7.22-9.23-17.91-11.5c0,.05-.01.09-.03.14,10.01,2.17,16.8,6.39,16.8,11.25s-6.54,8.23-16.24,9.98Z" class="cls-31"/>
        </g>
      </g>
    </mask>
    <linearGradient gradientUnits="userSpaceOnUse" y2="121.5" x2="331.81" y1="120.19" x1="350.54" id="linear-gradient-5">
      <stop stop-color="#7a5ea8" offset="0"/>
      <stop stop-color="#7370b1" offset=".22"/>
      <stop stop-color="#639ec9" offset=".66"/>
      <stop stop-color="#55c7df" offset="1"/>
    </linearGradient>
    <linearGradient gradientUnits="userSpaceOnUse" y2="121.03" x2="281.68" y1="121.03" x1="310.02" id="linear-gradient-6">
      <stop stop-color="#5372b7" offset="0"/>
      <stop stop-color="#5384bf" offset=".26"/>
      <stop stop-color="#54b2d5" offset=".79"/>
      <stop stop-color="#55c7df" offset="1"/>
    </linearGradient>
    <linearGradient xlink:href="#linear-gradient-6" y2="118.38" x2="286.48" y1="118.38" x1="309.74" id="linear-gradient-7"/>
    <linearGradient gradientUnits="userSpaceOnUse" y2="83.4" x2="337.44" y1="131.9" x1="305.54" id="linear-gradient-8">
      <stop stop-color="#0099da" offset="0"/>
      <stop stop-color="#12a2db" offset=".26"/>
      <stop stop-color="#40bcdd" offset=".79"/>
      <stop stop-color="#55c7df" offset="1"/>
    </linearGradient>
    <linearGradient xlink:href="#linear-gradient-5" y2="126.33" x2="308.42" y1="126.33" x1="314.03" id="linear-gradient-9"/>
    <linearGradient gradientUnits="userSpaceOnUse" gradientTransform="translate(-531.6 244.77) rotate(-29.85)" y2="302.76" x2="806.85" y1="293.13" x1="819.6" id="linear-gradient-10">
      <stop stop-color="#5372b7" offset="0"/>
      <stop stop-color="#5377b9" offset=".19"/>
      <stop stop-color="#5388c1" offset=".44"/>
      <stop stop-color="#54a3ce" offset=".72"/>
      <stop stop-color="#55c7df" offset="1"/>
    </linearGradient>
    <linearGradient xlink:href="#linear-gradient-10" y2="302.88" x2="798.39" y1="297.16" x1="805.96" id="linear-gradient-11"/>
    <linearGradient xlink:href="#linear-gradient-10" y2="299.25" x2="834.36" y1="287.77" x1="849.57" id="linear-gradient-12"/>
    <linearGradient xlink:href="#linear-gradient-10" y2="297.53" x2="821.72" y1="291.61" x1="829.55" id="linear-gradient-13"/>
    <linearGradient xlink:href="#linear-gradient-10" y2="312.88" x2="785.27" y1="302.58" x1="798.92" id="linear-gradient-14"/>
    <linearGradient xlink:href="#linear-gradient-5" y2="124.63" x2="298.99" y1="124.63" x1="304.63" id="linear-gradient-15"/>
    <linearGradient gradientUnits="userSpaceOnUse" y2="166" x2="302.68" y1="139.42" x1="300.47" id="linear-gradient-16">
      <stop stop-color="#1c9ad6" offset="0"/>
      <stop stop-color="#2ea3db" offset=".2"/>
      <stop stop-color="#57b9e7" offset=".56"/>
      <stop stop-color="#55c7df" offset="1"/>
    </linearGradient>
    <linearGradient xlink:href="#linear-gradient-5" y2="150.82" x2="304.33" y1="150.82" x1="308.28" id="linear-gradient-17"/>
    <linearGradient xlink:href="#linear-gradient-10" gradientTransform="matrix(1,0,0,1,0,0)" y2="142.9" x2="293.4" y1="139.64" x1="297.72" id="linear-gradient-18"/>
    <linearGradient xlink:href="#linear-gradient-10" y2="330.81" x2="762.82" y1="328.13" x1="766.37" id="linear-gradient-19"/>
    <linearGradient gradientUnits="userSpaceOnUse" y2="137.37" x2="319.28" y1="162.31" x1="313.74" id="linear-gradient-20">
      <stop stop-color="#2f7dc1" offset="0"/>
      <stop stop-color="#388fc8" offset=".3"/>
      <stop stop-color="#50bddb" offset=".89"/>
      <stop stop-color="#55c7df" offset="1"/>
    </linearGradient>
    <linearGradient xlink:href="#linear-gradient-5" gradientTransform="translate(-17.96 .18) rotate(-.62)" y2="139.99" x2="328.45" y1="166.06" x1="325.66" id="linear-gradient-21"/>
    <linearGradient gradientUnits="userSpaceOnUse" gradientTransform="translate(-17.96 .18) rotate(-.62)" y2="144.17" x2="346.26" y1="158.53" x1="328.4" id="linear-gradient-22">
      <stop stop-color="#7a5ea8" offset="0"/>
      <stop stop-color="#5372b7" offset="1"/>
    </linearGradient>
    <linearGradient xlink:href="#linear-gradient-22" gradientTransform="translate(-508.23 206.27) rotate(-23.2)" y2="274.79" x2="783.46" y1="282.54" x1="773.83" id="linear-gradient-23"/>
    <linearGradient gradientUnits="userSpaceOnUse" y2="148.1" x2="310.05" y1="90.63" x1="339.62" id="linear-gradient-24">
      <stop stop-color="#007ac1" offset="0"/>
      <stop stop-color="#128ac7" offset=".26"/>
      <stop stop-color="#40b4d7" offset=".79"/>
      <stop stop-color="#55c7df" offset="1"/>
    </linearGradient>
    <linearGradient xlink:href="#linear-gradient-22" gradientTransform="matrix(1,0,0,1,0,0)" y2="120.58" x2="335.06" y1="131.22" x1="321.82" id="linear-gradient-25"/>
    <linearGradient xlink:href="#linear-gradient-5" y2="105.91" x2="313.44" y1="105.91" x1="351.86" id="linear-gradient-26"/>
    <linearGradient xlink:href="#linear-gradient-22" gradientTransform="translate(-492.76 199.8) rotate(-22.58)" y2="208.76" x2="826.83" y1="226.89" x1="804.27" id="linear-gradient-27"/>
    <linearGradient xlink:href="#linear-gradient-22" gradientTransform="translate(-492.76 199.8) rotate(-22.58)" y2="223.84" x2="808.57" y1="237.39" x1="791.71" id="linear-gradient-28"/>
    <linearGradient xlink:href="#linear-gradient-22" gradientTransform="translate(-492.76 199.8) rotate(-22.58)" y2="234.06" x2="799.56" y1="243.54" x1="787.77" id="linear-gradient-29"/>
    <linearGradient gradientUnits="userSpaceOnUse" gradientTransform="translate(-84.77 -.26) rotate(-2.81)" y2="191.92" x2="383.45" y1="186.18" x1="383.45" id="linear-gradient-30">
      <stop stop-color="#55c7df" offset="0"/>
      <stop stop-color="#599eca" offset=".43"/>
      <stop stop-color="#6161ac" offset="1"/>
    </linearGradient>
    <linearGradient xlink:href="#linear-gradient-30" gradientTransform="translate(571.45 343.47) rotate(-175.96)" y2="159.78" x2="276.11" y1="158.74" x1="276.07" id="linear-gradient-31"/>
    <linearGradient xlink:href="#linear-gradient-30" y2="184.46" x2="383.61" y1="182.93" x1="383.44" id="linear-gradient-32"/>
    <linearGradient xlink:href="#linear-gradient-30" gradientTransform="translate(34.39 .85) rotate(1.13)" y2="156.12" x2="274.44" y1="168.4" x1="275.34" id="linear-gradient-33"/>
    <linearGradient xlink:href="#linear-gradient-30" gradientTransform="translate(34.39 .85) rotate(1.13)" y2="158.16" x2="275.37" y1="159.66" x1="275.46" id="linear-gradient-34"/>
    <linearGradient xlink:href="#linear-gradient-30" gradientTransform="translate(34.39 .85) rotate(1.13)" y2="159.64" x2="276.12" y1="159.34" x1="276.11" id="linear-gradient-35"/>
    <linearGradient xlink:href="#linear-gradient-30" gradientTransform="translate(34.39 .85) rotate(1.13)" y2="156.59" x2="275.14" y1="158.45" x1="275.28" id="linear-gradient-36"/>
    <linearGradient xlink:href="#linear-gradient-30" gradientTransform="translate(34.39 .85) rotate(1.13)" y2="158.34" x2="276.06" y1="158.09" x1="276.03" id="linear-gradient-37"/>
    <path d="M534.19,208.85c0,11.19-102.16,20.25-228.19,20.25s-228.19-9.07-228.19-20.25,102.16-20.25,228.19-20.25,228.19,9.07,228.19,20.25Z" id="path"/>
  </defs>
  
  <g class="cls-35">
    <g id="Layer_1">
      <g>
        <path d="M334.07,109.81c0,.06-.02.13-.03.19,10.01,2.17,16.8,6.39,16.8,11.25,0,7.07-14.39,11.28-32.13,11.28s-32.13-4.21-32.13-11.28c0-5.64,9.15-10.42,21.86-12.13,0-.03.02-.05.03-.08-15.83,1.85-27.43,7.89-27.43,15.05,0,8.64,16.87,15.64,37.68,15.64s37.68-7,37.68-15.64c0-6.37-9.16-11.84-22.31-14.28Z" class="cls-34"/>
        <g>
          <path d="M350.84,121.25c0,.55-.09,1.09-.26,1.6.23-.59.34-1.2.34-1.84,0-4.57-6.02-8.58-15.06-10.84-.59-.13-1.18-.25-1.79-.36,0,.06-.02.13-.03.19,10.01,2.17,16.8,6.39,16.8,11.25Z" class="cls-39"/>
          <path d="M318.79,139.49c-20.81,0-37.68-7-37.68-15.64,0-.75.13-1.5.38-2.22-.31.8-.47,1.62-.47,2.46,0,8.64,16.87,15.64,37.68,15.64,18.97,0,34.67-5.82,37.29-13.39-2.87,7.46-18.43,13.16-37.2,13.16Z" class="cls-39"/>
          <path d="M287,119.16c1.94-4.71,10.33-8.55,21.43-10.04,0-.03.02-.05.03-.08-1.97.23-3.88.53-5.71.88-8.34,1.92-14.32,5.29-15.75,9.24Z" class="cls-39"/>
        </g>
        <path d="M308.43,109.12s.02-.05.03-.08c-.05,0-.1.01-.14.02,0,.02-.01.04-.02.06-13.06,1.73-22.46,6.57-22.46,12.27,0,7.15,14.78,11.41,33.01,11.41s33.01-4.26,33.01-11.41c0-4.91-6.98-9.19-17.26-11.38,0-.03.02-.06.02-.1-.18-.04-.37-.07-.55-.1,0,.06-.02.13-.03.19,10.01,2.17,16.8,6.39,16.8,11.25,0,7.07-14.39,11.28-32.13,11.28s-32.13-4.21-32.13-11.28c0-5.64,9.15-10.42,21.86-12.13Z" class="cls-39"/>
        <g class="cls-1">
          <path d="M334.07,109.81c0,.06-.02.13-.03.19,10.01,2.17,16.8,6.39,16.8,11.25s-6.54,8.23-16.24,9.98c-3.84,3.77-8.16,6.73-12.97,8.45,19.44-.62,34.75-7.36,34.75-15.59,0-6.37-9.16-11.84-22.31-14.28Z" class="cls-14"/>
        </g>
        <g class="cls-36">
          <path d="M334.6,131.23c-.59.58-1.2,1.15-1.82,1.69.48-.41.96-.84,1.43-1.27,10.61-1.81,17.76-5.38,17.76-10.29s-7.22-9.23-17.91-11.5c0,.05-.01.09-.03.14,10.01,2.17,16.8,6.39,16.8,11.25s-6.54,8.23-16.24,9.98Z" class="cls-13"/>
        </g>
        <path d="M281.03,124.09c0,3.32,2.5,6.4,6.76,8.94.65-2.2,1.67-4.23,3.18-5.72-2.79-1.67-4.39-3.71-4.39-6.06,0-5.64,9.15-10.42,21.86-12.13,0-.03.02-.05.03-.08-15.83,1.85-27.43,7.89-27.43,15.05Z" class="cls-16"/>
        <g class="cls-29">
          <path d="M285.94,121.35c0,2.46,1.68,4.6,4.63,6.37.13-.14.26-.28.39-.42-2.79-1.67-4.39-3.71-4.39-6.06,0-5.64,9.15-10.42,21.86-12.13,0-.03.02-.05.03-.08-3.69.43-7.14,1.09-10.28,1.94-7.51,2.55-12.24,6.25-12.24,10.38Z" class="cls-15"/>
        </g>
        <g>
          <path d="M315.59,116.61c8.42-19.22,18.55-27.08,23.25-30.33,4.22-2.92,8.18-4.98,11-6.31,1.94-1.76,4.69-4.73,4.6-7.35,0,0-16.79,7.01-19.47,14.39,0,0-.99-.85-.15-2.22,0,0-6.79,3.31-7.19,8.29,0,0-1.04-.87-.51-2.39,0,0-10.16,6.82-9.21,14.99,0,0-2.03-2.14-1.75-4.73,0,0-6.05,4.54-4.54,9.02,0,0-1.41-.7-1.09-2.29,0,0-6.29,8.23-5,13.47l1.29,5.24s-2.29-2.99-2.76-7.01c0,0-4.57,5.89-5.17,10.29,3.36.85,7.25,1.47,11.5,1.84,1.57-5.91,3.48-10.93,5.23-14.9Z" class="cls-4"/>
          <g class="cls-33">
            <path d="M313.72,121.14c-2.03,3.34-3.85,6.73-5.44,10.16.68.08,1.37.14,2.07.21,1.02-3.85,2.19-7.32,3.36-10.37Z" class="cls-12"/>
          </g>
          <path d="M317.87,105.66c.4.64.76,1.02.76,1.02-.79-6.8,6.11-12.66,8.45-14.43-.14-.39-.19-.91.03-1.54,0,0-10.16,6.82-9.21,14.99,0,0-.01-.01-.03-.03Z" class="cls-5"/>
          <path d="M311.3,109.78c.29.81,1.03,1.18,1.03,1.18-1.2-3.57,2.38-7.17,3.9-8.49-.1-.48-.14-.99-.09-1.52,0,0-6.05,4.54-4.54,9.02,0,0-.13-.06-.3-.2Z" class="cls-8"/>
          <path d="M335.69,88.01c2.3-6.34,15.01-12.4,18.55-13.99.14-.47.21-.93.19-1.39,0,0-15.44,6.45-19.06,13.48-.51,1.18.32,1.89.32,1.89Z" class="cls-7"/>
          <path d="M328.35,94.08c.31-3.79,4.3-6.61,6.2-7.74-.12-.38-.12-.9.26-1.54,0,0-6.31,3.08-7.12,7.77.01.98.66,1.52.66,1.52Z" class="cls-6"/>
          <path d="M307.53,127.38l-1.29-5.24c-1.08-4.4,3.18-10.91,4.57-12.88-.25-.37-.44-.89-.3-1.57,0,0-6.29,8.23-5,13.47.83,3.36,1.12,4.57,1.23,5,.45.78.79,1.23.79,1.23Z" class="cls-10"/>
          <g class="cls-21">
            <path d="M304.32,120.96c-.12-.51-.22-1.03-.29-1.58,0,0-4.57,5.89-5.17,10.29.29.07.58.14.87.21.78-3.41,3.51-7.43,4.58-8.92Z" class="cls-28"/>
          </g>
          <path d="M313.59,121.38c-1.33,3.07-2.61,6.44-3.71,10.07.16.05.32.08.48.09,1.03-3.86,2.19-7.34,3.37-10.39-.05.08-.09.16-.14.24Z" class="cls-49"/>
        </g>
        <g>
          <path d="M294.56,144.96c2.25,3.19,3.58,4.66,3.58,4.66,0,0-2.93-1.33-4.65-3.32.66,1.83,1.62,3.89,3.05,6.04,3.02,4.54,6.91,7.63,9.96,9.59-.3-8.08.38-15.47,1.56-22.01-4.63-.58-8.88-1.52-12.57-2.74-1.14,2.53-2.23,5.93-.92,7.78Z" class="cls-45"/>
          <path d="M306.5,139.71c-1.46,6.9-2.25,13.82-2.26,20.65.78.59,1.54,1.11,2.25,1.57-.3-8.08.38-15.47,1.56-22.01-.52-.07-1.04-.14-1.56-.21Z" class="cls-20"/>
          <path d="M307.39,139.9c-.67,3.29-1.17,6.74-1.45,10.35-.31,4.03-.3,7.8-.08,11.27.22.14.43.28.64.42-.3-8.07.38-15.44,1.56-21.97-.23-.03-.46-.06-.67-.06Z" class="cls-49"/>
          <path d="M294.56,144.96c.21.29.4.56.59.83-1.26-2.06.14-5.82,1.35-8.33-.32-.15-.65-.29-.97-.4-1.16,2.54-2.3,6.02-.98,7.9Z" class="cls-11"/>
          <path d="M297.23,153.32c-1.43-2.15-2.39-4.21-3.04-6.04,1.72,2,4.65,3.32,4.65,3.32,0,0-.32-.36-.92-1.09-.71-.35-2.99-1.55-4.43-3.22.66,1.83,1.62,3.89,3.05,6.04.23.34.46.67.7,1,0,0,0,0,0-.01Z" class="cls-9"/>
        </g>
        <g>
          <path d="M322.15,141.29c-2.57,1.47-5,2.26-6.65,2.7,1.4-.68,3.57-1.86,5.85-3.65-.91.04-1.83.06-2.75.07-2.84.03-5.61-.07-8.28-.28-1.59,8.41-2.26,15.9-2.54,21.81,1.12-.47,2.28-1.02,3.46-1.63,4.85-2.53,8.36-5.42,10.81-7.86-.93.82-2.7,2.18-5.38,3.16-1.6.59-3.04.86-4.1,1,1.71-.6,6.81-2.57,10.5-6.97,3.18-3.81,3.67-7.47,3.6-9.66-.91.09-1.84.17-2.78.23-.53.36-1.11.73-1.74,1.09Z" class="cls-40"/>
          <path d="M307.78,161.93c.66-.27,1.35-.58,2.06-.93.66-.32,1.28-.64,1.85-.95-.76-7.3-.56-13.97.09-19.82-.49-.03-.98-.07-1.47-.11-1.59,8.41-2.26,15.9-2.54,21.81Z" class="cls-19"/>
          <path d="M307.78,161.93c.69-.31,1.38-.62,2.06-.93-.3-5.21-.14-9.63.09-12.93.11-1.6.35-4.33.89-7.91-.17-.01-.34-.03-.51-.04-1.59,8.41-2.26,15.9-2.54,21.81Z" class="cls-49"/>
          <path d="M325.6,140.06c-.41,5.27-2.55,8.26-3.57,9.48-1.73,2.06-4.13,3.67-5.99,4.91-1.39.93-2.62,1.63-3.53,2.12,2.03-.68,7.02-2.61,10.55-6.95.87-1.07,2.3-2.86,3.08-5.64.46-1.63.54-3.05.53-4.02-.18.02-.36.04-.55.05-.17.02-.34.03-.52.05Z" class="cls-25"/>
          <path d="M311.7,160.06s3.14-1.46,6.51-4.23c1.59-1.31,3.84-3.39,3.84-3.39,0,0,0,0,0,0-.73.64-1.99,1.62-3.79,2.49-.25.27-.59.61-1,1-2.8,2.66-5.59,4.1-5.57,4.12Z" class="cls-24"/>
        </g>
        <g>
          <path d="M322.58,131.9c1.71-.82,3.64-1.97,5.42-3.55,3.75-3.33,4.68-6.63,4.95-7.93-.29.22-1.41,1.04-3.17,1.27-1.58.21-2.72-.18-3.08-.31,1.29-.46,2.96-1.19,4.55-2.34,4.4-3.19,4.85-7.11,4.92-8.14-1.16.68-2.96,1.59-5.34,2.28-1.71.5-3.23.74-4.41.86.87-.29,1.78-.61,2.71-.97,2.45-.94,4.56-1.95,6.35-2.92.38-1.3.85-2.69,1.44-4.14,1.11-2.73,2.41-5.17,3.74-7.3-.27.27-.83.74-1.73,1.1-1.48.58-2.83.43-3.21.38.88-.36,1.86-.81,2.9-1.37.97-.52,1.8-1.05,2.5-1.52,1.13-2.87,2.55-6,4.37-9.35,1.92-3.53,3.96-6.73,5.97-9.57l-1.7,1.65c-2.73,1.42-6.61,3.62-10.69,6.69-9.32,7.01-14.82,14.89-19.84,26.2-2.87,6.47-5.03,12.81-6.66,18.81,2.29.13,4.66.2,7.08.2.99,0,1.97-.01,2.94-.03Z" class="cls-48"/>
          <path d="M331.72,121.14c-.46,1.43-1.62,4.21-4.76,7.13-1.71,1.59-3.54,2.79-5.16,3.67h.69c1.73-.83,3.69-1.99,5.5-3.59,3.75-3.33,4.68-6.63,4.95-7.93-.16.12-.59.43-1.24.72Z" class="cls-27"/>
          <path d="M315.27,125.42c3.58-12.16,7.85-25.85,23.54-38.18,4.18-3.28,8.15-5.67,10.93-7.2-2.73,1.42-6.61,3.62-10.69,6.69-9.32,7.01-14.82,14.89-19.84,26.2-2.87,6.47-5.03,12.81-6.66,18.81.36.02.72.04,1.09.06.5-2.33,1.06-4.46,1.63-6.37Z" class="cls-32"/>
          <path d="M317.83,116.57c.99-2.43,2.62-6.2,5.18-10.79,2.52-4.54,4.14-7.4,7.37-11.03,1.11-1.25,4.17-4.56,8.73-7.95,0,0,3.37-2.51,8.37-5.47.65-.39,1.41-.82,1.41-.82.29-.17.58-.32.85-.48-2.73,1.42-6.61,3.62-10.69,6.69-9.32,7.01-14.82,14.89-19.84,26.2-2.87,6.47-5.03,12.81-6.66,18.81.11,0,.22.01.33.02,1.11-4.47,2.68-9.62,4.95-15.18Z" class="cls-49"/>
          <path d="M349.75,80.03c-.26.14-.54.28-.82.43-1.52,2.27-3.04,4.75-4.48,7.41-1.81,3.34-3.24,6.48-4.37,9.35-.7.48-1.53,1-2.5,1.52-1.04.56-2.02,1.01-2.9,1.37.18.02.57.07,1.09.05.86-.35,1.83-.8,2.85-1.35.97-.52,1.8-1.05,2.5-1.52,1.13-2.87,2.55-6,4.37-9.35,1.92-3.53,3.96-6.73,5.97-9.57l-1.7,1.65Z" class="cls-23"/>
          <path d="M338.91,99.82c-1.08,1.84-2.12,3.88-3.03,6.12-.59,1.45-1.06,2.84-1.44,4.14-.65.38-1.33.77-2.04,1.15-2.08,1.12-4.09,2.04-5.98,2.81.5-.16,1.17-.39,1.96-.68,0,0,.38-.14.75-.28,2.45-.94,4.56-1.95,6.35-2.92.38-1.3.85-2.69,1.44-4.14,1.11-2.73,2.41-5.17,3.74-7.3-.58.37-1.17.74-1.75,1.11Z" class="cls-26"/>
          <path d="M330.22,118.96c-1.6,1.16-3.26,1.89-4.55,2.34.29.11,1.07.37,2.18.37-.56-.09-.96-.22-1.14-.3,1.29-.46,2.96-1.19,4.55-2.34,4.4-3.19,4.85-7.11,4.92-8.14-.32.19-.7.4-1.11.61-.23,1.56-1.13,4.77-4.84,7.46Z" class="cls-22"/>
        </g>
        <g>
          <path d="M308.25,165.91l-1.85.09s.26,2.13-1.72,3.4c0,0,2.08,1.45,2.88,5.18l-.22-4.28c-.33-.04-.59-.31-.61-.66-.02-.39.28-.71.66-.73.39-.02.71.28.73.66.02.34-.21.64-.53.71l.17,4.29s.24-3.46,2.48-5.45c0,0-1.73-.49-2.01-3.21Z" class="cls-44"/>
          <rect transform="translate(622.54 314.87) rotate(177.09)" ry=".48" rx=".48" height=".97" width="2.55" y="164.86" x="306" class="cls-42"/>
          <path d="M307.88,162.87c-.12,0-.22.07-.27.18-.12.27-.3.44-.52.45-.22.01-.42-.15-.56-.4-.06-.1-.17-.16-.29-.15h-.27c-.17.02-.3.16-.29.33l.05.97c0,.17.15.3.32.29l2.38-.12c.17,0,.3-.15.29-.32l-.05-.97c0-.17-.15-.3-.32-.29l-.47.02Z" class="cls-41"/>
          <g>
            <path d="M307.4,168.91s0,0,0,0l-.15-2.95-.86.04s.26,2.13-1.72,3.4c0,0,2.08,1.45,2.88,5.18l-.22-4.28c-.33-.04-.59-.31-.61-.66-.02-.39.28-.71.66-.73Z" class="cls-43"/>
            <path d="M306.25,164.91c-.15,0-.27.14-.26.29l.02.41c0,.15.14.27.29.26l.95-.05-.05-.97-.95.05Z" class="cls-46"/>
            <path d="M307.26,165.78c-.66.02-1.01-.05-1.17-.08-.03,0-.05-.01-.07-.02.04.12.15.2.28.19l1.99-.1c.13,0,.24-.1.26-.23-.02,0-.04.02-.07.03-.1.04-.42.18-1.22.21Z" class="cls-18"/>
            <path d="M307.09,163.5c-.22.01-.42-.15-.56-.4-.06-.1-.17-.16-.29-.15h-.27c-.17.02-.3.16-.29.33l.05.97c0,.17.15.3.32.29l1.14-.06-.05-.99s-.03,0-.05,0Z" class="cls-47"/>
          </g>
          <path d="M305.83,164.39s-.06-.02-.07-.02c.05.1.16.17.29.17l2.38-.12c.14,0,.25-.1.28-.23-.03.02-.07.04-.12.07-.44.22-.71.12-1.4.15-.58.03-.85.12-1.35-.02Z" class="cls-17"/>
        </g>
      </g>
    </g>
  </g>
</svg>